<?xml version="1.0" standalone="no"?>
<!DOCTYPE svg PUBLIC "-//W3C//DTD SVG 20010904//EN"
 "http://www.w3.org/TR/2001/REC-SVG-20010904/DTD/svg10.dtd">
<svg version="1.0" xmlns="http://www.w3.org/2000/svg"
 width="1024.000000pt" height="1024.000000pt" viewBox="0 0 1024.000000 1024.000000"
 preserveAspectRatio="xMidYMid meet">

<g transform="translate(0.000000,1024.000000) scale(0.100000,-0.100000)"
fill="#000000" stroke="none">
<path d="M7370 5770 l0 -660 135 0 135 0 0 303 c0 294 1 304 23 347 26 53 73
87 132 96 47 7 108 -8 139 -35 47 -40 51 -68 54 -398 l4 -313 134 0 134 0 -1
328 c-1 344 -8 411 -48 490 -67 131 -237 201 -386 157 -66 -19 -133 -61 -164
-102 l-20 -28 -1 238 0 237 -135 0 -135 0 0 -660z"/>
<path d="M4290 6295 l0 -115 185 0 185 0 0 -535 0 -535 140 0 140 0 0 535 0
535 190 0 190 0 0 115 0 115 -515 0 -515 0 0 -115z"/>
<path d="M2360 6358 c-44 -20 -406 -169 -650 -267 -241 -98 -225 -68 -217
-416 13 -539 71 -828 212 -1039 108 -163 339 -374 584 -535 104 -68 125 -76
176 -67 78 15 382 251 547 425 205 216 269 372 312 761 17 159 36 496 36 651
0 140 11 132 -345 280 -159 66 -347 145 -417 175 -139 59 -169 63 -238 32z
m242 -246 c79 -38 149 -110 186 -190 25 -53 27 -68 30 -219 l4 -163 41 0 c58
0 123 -35 155 -83 l27 -40 1 -266 1 -266 -6 252 c-3 138 -9 255 -13 259 -5 4
-8 -5 -8 -19 0 -28 -35 -72 -50 -62 -5 3 -10 -102 -12 -242 -3 -246 -3 -248
-30 -298 -32 -61 -80 -108 -133 -132 -35 -16 -81 -19 -365 -23 -211 -4 -266
-7 -156 -8 93 -1 167 -4 165 -6 -4 -4 -65 -15 -96 -18 -25 -3 -12 -28 15 -30
15 -1 -2 -4 -38 -8 -38 -4 42 -7 194 -8 143 -1 257 -4 255 -6 -2 -2 -157 -6
-344 -8 l-341 -3 -76 38 c-87 42 -136 92 -177 177 -26 55 -26 56 -29 340 -2
156 -1 299 3 318 7 40 68 110 112 129 18 7 50 13 72 13 l39 0 4 163 c3 151 5
166 30 219 46 99 143 185 248 219 14 5 70 7 126 6 90 -2 107 -6 166 -35z"/>
<path d="M2345 5924 c-91 -47 -114 -100 -115 -261 l0 -123 201 0 201 0 -4 138
c-3 132 -4 139 -32 179 -16 25 -46 51 -70 63 -51 24 -138 27 -181 4z"/>
<path d="M2788 5543 c7 -3 16 -2 19 1 4 3 -2 6 -13 5 -11 0 -14 -3 -6 -6z"/>
<path d="M3803 6120 c0 -41 2 -58 4 -37 2 20 2 54 0 75 -2 20 -4 3 -4 -38z"/>
<path d="M5621 6084 c-243 -65 -379 -294 -341 -575 34 -255 223 -419 485 -419
138 0 252 45 336 131 42 43 99 140 99 168 0 7 -46 11 -134 11 -126 0 -135 -1
-141 -20 -22 -68 -165 -103 -257 -62 -25 11 -57 35 -71 53 -22 31 -57 114 -57
139 0 6 127 10 336 10 l337 0 -6 103 c-12 214 -98 358 -258 432 -101 46 -225
57 -328 29z m196 -209 c21 -9 46 -23 56 -33 22 -20 51 -75 61 -114 l6 -28
-195 0 c-191 0 -195 0 -195 21 0 50 53 121 115 153 38 20 105 20 152 1z"/>
<path d="M6673 6085 c-224 -49 -363 -239 -363 -497 0 -151 39 -258 130 -352
121 -127 314 -178 495 -131 154 41 288 179 311 323 l7 42 -94 1 c-52 1 -109 3
-126 5 -31 4 -34 1 -58 -51 -15 -30 -38 -63 -53 -74 -65 -46 -164 -51 -229
-12 -78 48 -119 159 -110 294 6 94 34 155 90 201 32 26 48 31 106 34 54 3 76
0 108 -17 46 -23 80 -61 90 -99 6 -24 7 -25 81 -18 41 3 102 6 134 6 l59 0 -7
38 c-19 108 -117 232 -217 277 -103 45 -234 56 -354 30z"/>
<path d="M3577 5788 c-16 -570 -72 -908 -189 -1143 -114 -228 -415 -536 -761
-778 -174 -122 -198 -122 -377 -2 -322 215 -635 515 -750 719 -18 31 -34 56
-37 56 -11 0 92 -171 123 -205 11 -11 25 -32 31 -47 7 -16 18 -28 25 -29 7 0
4 -4 -7 -9 -19 -8 -19 -8 5 -18 24 -10 13 -17 -19 -13 -7 2 -10 -2 -7 -7 3 -6
-2 -8 -14 -5 -11 3 -20 9 -20 14 0 21 -15 7 -16 -16 -1 -16 2 -22 10 -18 6 4
5 -1 -3 -10 -16 -20 -32 -13 -24 11 5 14 3 15 -7 5 -9 -8 -19 -9 -30 -3 -13 7
-22 5 -31 -8 -12 -15 -12 -15 1 -5 21 16 44 0 37 -26 -7 -27 20 -51 34 -30 7
12 9 11 9 -2 0 -28 -29 -31 -56 -4 -25 25 -32 41 -12 29 7 -4 8 -3 4 5 -4 6
-11 9 -16 6 -10 -6 -41 35 -35 45 3 4 -3 10 -13 12 -20 6 -118 148 -165 241
-16 32 -32 56 -34 53 -9 -8 87 -178 150 -266 76 -106 306 -337 452 -454 113
-90 418 -298 492 -335 56 -28 110 -35 162 -21 56 15 359 219 526 353 443 358
632 652 715 1111 31 169 60 450 46 435 -2 -2 -7 -26 -10 -54 -25 -219 -29
-240 -45 -252 -14 -12 -14 -12 3 -6 16 5 18 3 13 -11 -4 -10 -7 -24 -7 -31 0
-8 -9 -13 -20 -12 -10 1 -17 3 -15 6 3 2 -1 11 -8 20 -11 14 -10 15 7 1 18
-14 19 -13 13 4 -4 10 -2 25 5 33 9 11 9 16 -2 23 -8 5 -18 6 -22 4 -4 -3 -5
2 -2 11 5 11 2 14 -12 9 -11 -3 -15 -2 -9 3 14 11 17 33 5 33 -6 0 -10 9 -10
21 0 11 -5 17 -10 14 -6 -4 -7 -12 -3 -18 4 -7 -2 -5 -12 3 -17 14 -18 13 -13
-8 4 -13 2 -20 -4 -16 -12 7 -28 -14 -28 -36 0 -13 1 -13 11 0 8 12 10 11 7
-5 -2 -13 -11 -20 -25 -19 -15 1 -20 -3 -15 -14 3 -10 1 -13 -6 -8 -8 4 -12 1
-12 -10 0 -10 -2 -15 -5 -12 -3 3 -3 25 1 48 5 30 13 44 26 48 18 4 18 5 1 18
-17 12 -17 13 4 14 16 0 21 4 17 15 -4 8 -1 15 5 15 6 0 11 5 11 11 0 7 -10 5
-25 -5 l-24 -16 4 57 c19 242 33 688 23 699 -3 2 -8 -96 -11 -218z m34 -691
c-10 -9 -11 -8 -5 6 3 10 9 15 12 12 3 -3 0 -11 -7 -18z m107 -72 c0 -14 -4
-28 -9 -31 -5 -3 -7 5 -5 18 3 13 5 26 5 31 2 18 9 4 9 -18z m-8 -71 c0 -8
-19 -13 -24 -6 -3 5 1 9 9 9 8 0 15 -2 15 -3z"/>
<path d="M3801 5984 c0 -11 3 -14 6 -6 3 7 2 16 -1 19 -3 4 -6 -2 -5 -13z"/>
<path d="M3791 5784 c0 -11 3 -14 6 -6 3 7 2 16 -1 19 -3 4 -6 -2 -5 -13z"/>
<path d="M3793 5670 c0 -30 2 -43 4 -27 2 15 2 39 0 55 -2 15 -4 2 -4 -28z"/>
<path d="M3780 5543 c0 -32 -3 -69 -6 -83 -5 -17 -3 -22 4 -15 12 11 21 155
10 155 -5 0 -8 -26 -8 -57z"/>
<path d="M1281 5414 c0 -11 3 -14 6 -6 3 7 2 16 -1 19 -3 4 -6 -2 -5 -13z"/>
<path d="M3615 5301 c2 -17 30 -27 38 -14 3 5 -5 13 -18 19 -19 9 -22 8 -20
-5z"/>
<path d="M1301 5254 c0 -11 3 -14 6 -6 3 7 2 16 -1 19 -3 4 -6 -2 -5 -13z"/>
<path d="M3671 5234 c0 -11 3 -14 6 -6 3 7 2 16 -1 19 -3 4 -6 -2 -5 -13z"/>
<path d="M1321 5114 c0 -11 3 -14 6 -6 3 7 2 16 -1 19 -3 4 -6 -2 -5 -13z"/>
<path d="M1342 5010 c0 -14 2 -19 5 -12 2 6 2 18 0 25 -3 6 -5 1 -5 -13z"/>
<path d="M1352 4965 c0 -11 3 -29 8 -40 11 -25 11 1 0 35 -6 20 -8 21 -8 5z"/>
<path d="M4290 4855 l0 -115 185 0 185 0 0 -525 0 -525 140 0 140 0 0 525 0
525 190 0 190 0 0 115 0 115 -515 0 -515 0 0 -115z"/>
<path d="M1371 4880 c0 -8 6 -28 14 -45 17 -39 18 -21 0 25 -7 19 -14 28 -14
20z"/>
<path d="M8020 4760 l0 -130 -91 0 c-90 0 -91 0 -85 -22 3 -13 6 -58 6 -100
l0 -78 84 0 84 0 4 -277 c3 -257 5 -281 24 -323 55 -120 164 -168 352 -154
l92 6 0 109 0 109 -70 0 c-84 0 -116 13 -130 53 -6 17 -10 123 -10 253 l0 224
105 0 105 0 0 100 0 100 -105 0 -105 0 0 130 0 130 -130 0 -130 0 0 -130z"/>
<path d="M1415 4740 c15 -48 24 -68 34 -75 6 -3 2 16 -10 42 -23 54 -35 71
-24 33z"/>
<path d="M1191 4704 c0 -11 3 -14 6 -6 3 7 2 16 -1 19 -3 4 -6 -2 -5 -13z"/>
<path d="M1212 4649 c6 -16 12 -28 14 -26 5 5 -13 57 -20 57 -3 0 0 -14 6 -31z"/>
<path d="M7230 4635 c-66 -19 -143 -67 -175 -110 -86 -112 -68 -290 37 -365
55 -40 102 -56 268 -90 169 -35 194 -48 198 -108 5 -69 -46 -102 -157 -102
-77 1 -142 38 -166 98 -10 24 -11 24 -140 24 l-130 -1 3 -28 c5 -42 45 -124
82 -166 37 -42 129 -89 211 -107 87 -19 280 -8 351 19 70 27 160 106 181 159
37 92 33 193 -9 258 -49 75 -124 112 -288 139 -193 33 -240 56 -238 116 1 40
26 66 74 80 81 21 179 -15 207 -77 l13 -31 117 3 116 3 -2 38 c-4 56 -52 142
-100 179 -74 57 -143 77 -278 80 -86 3 -135 0 -175 -11z"/>
<path d="M5708 4624 c-47 -14 -106 -63 -140 -114 -17 -24 -17 -23 -17 48 l-1
72 -130 0 -130 0 0 -470 0 -470 130 0 130 0 0 228 c0 252 9 329 42 379 37 56
88 76 201 81 l97 4 -1 129 -2 129 -66 -1 c-36 0 -87 -7 -113 -15z"/>
<path d="M5982 4273 c5 -407 6 -415 84 -502 68 -76 117 -95 244 -96 121 0 182
20 241 81 18 19 37 34 41 34 4 0 8 -22 8 -50 l0 -50 130 0 130 0 0 470 0 470
-129 0 -129 0 -4 -307 c-3 -263 -6 -312 -20 -338 -47 -87 -151 -118 -246 -75
-34 15 -47 29 -63 65 -19 43 -21 69 -22 351 l-2 304 -133 0 -133 0 3 -357z"/>
<path d="M1563 4365 c0 -8 7 -11 15 -7 9 3 13 1 9 -4 -3 -6 -2 -16 4 -24 6
-11 9 -9 9 11 0 18 -6 28 -18 31 -11 3 -19 0 -19 -7z"/>
<path d="M1527 4353 c3 -7 9 -10 14 -7 14 8 11 21 -5 21 -8 0 -12 -6 -9 -14z"/>
<path d="M1527 4317 c-3 -7 3 -13 13 -13 10 0 16 6 13 13 -3 7 -9 13 -13 13
-4 0 -10 -6 -13 -13z"/>
<path d="M1478 4313 c7 -3 16 -2 19 1 4 3 -2 6 -13 5 -11 0 -14 -3 -6 -6z"/>
</g>
</svg>
